. 
 
http://www.torrenting.com          :     Once & For all ;)


               www . Torrenting . Com 

(((((((((((((= Enjoy No RAR releases =))))))))))))))))))))


...................................NFO:....................................

.[IMG]http://image.leechfrom.me/images/834Untitled_1gg_1_1_.gif[/IMG]

 
TITLE: 

Machine Gun Preacher 2011 BRRiP AC3 XViD - INSPiRAL

IMDB: 
 
http://www.imdb.com/title/tt1586752/


SOURCES:

VIDEO -THANKS
AUDIO -THANKS
SUBS  - When needed 

STATS:

Video
ID                                       : 0
Format                                   : MPEG-4 Visual
Format profile                           : Advanced Simple@L5
Format settings, BVOP                    : 2
Format settings, QPel                    : No
Format settings, GMC                     : No warppoints
Format settings, Matrix                  : Default (MPEG)
Muxing mode                              : Packed bitstream
Codec ID                                 : XVID
Codec ID/Hint                            : XviD
Duration                                 : 2h 8mn
Bit rate                                 : 2 337 Kbps
Width                                    : 720 pixels
Height                                   : 304 pixels
Display aspect ratio                     : 2.35:1
Frame rate                               : 23.976 fps
Color space                              : YUV
Chroma subsampling                       : 4:2:0
Bit depth                                : 8 bits
Scan type                                : Progressive
Compression mode                         : Lossy
Bits/(Pixel*Frame)                       : 0.445
Stream size                              : 2.10 GiB (84%)
Writing library                          : XviD 64

Audio
ID                                       : 1
Format                                   : AC-3
Format/Info                              : Audio Coding 3
Mode extension                           : CM (complete main)
Codec ID                                 : 2000
Duration                                 : 2h 8mn
Bit rate mode                            : Constant
Bit rate                                 : 448 Kbps
Channel(s)                               : 6 channels
Channel positions                        : Front: L C R, Side: L R, LFE
Sampling rate                            : 48.0 KHz
Bit depth                                : 16 bits
Compression mode                         : Lossy
Stream size                              : 413 MiB (16%)
Alignment                                : Aligned on interleaves
Interleave, duration                     : 42 ms (1.00 video frame)
Interleave, preload duration             : 512 ms




NOTES:

Simple rip from the 720p,with the audio changed to AC3 and remuxed .....


SCREENS:

[IMG]http://i.imgur.com/Wn3ef.png[/IMG]
[IMG]http://i.imgur.com/ZrRPE.png[/IMG]
[IMG]http://i.imgur.com/fEsa8.png[/IMG]
[IMG]http://i.imgur.com/g9utr.png[/IMG]


GREETZ: 

Past,Present and Future

[IMG]http://image.leechfrom.me/images/834Untitled_1gg_1_1_.gif[/IMG]